<svg width="262" height="48" viewBox="0 0 262 48" fill="none" xmlns="http://www.w3.org/2000/svg">
<path d="M44.8218 24C44.8218 11.784 35.7806 1.6752 24.0204 0V3.216C11.7942 3.216 1.67694 12.2496 0.000335693 24H3.21902C3.21902 36.216 12.2602 46.3248 24.0204 48V44.784C36.2466 44.784 46.3639 35.7504 48.0405 24H44.8218Z" fill="#FC6200"/>
<path d="M31.5222 28.3318C30.0234 30.919 27.2226 32.6614 24.0135 32.6614C19.2287 32.6614 15.3471 28.783 15.3471 24.0022C15.3471 19.2214 19.2287 15.343 24.0135 15.343C27.2226 15.343 30.0234 17.0806 31.5222 19.6726L36.2109 16.9654C33.8858 12.3766 29.3604 9.09821 24.0183 8.50781V10.1446C15.9908 10.1446 9.37571 16.2022 8.51579 24.0022H10.154C10.154 32.023 16.2214 38.6326 24.0231 39.4918V37.855C29.2643 37.855 33.8954 35.2774 36.725 31.3222L31.5318 28.327L31.5222 28.3318Z" fill="white"/>
<path d="M63.1579 21.4059C63.4414 20.9499 63.792 20.5419 64.2052 20.1819C64.6183 19.8219 65.0891 19.5099 65.6128 19.2507C66.1364 18.9915 66.7081 18.7947 67.3278 18.6555C67.9475 18.5163 68.6009 18.4491 69.2926 18.4491C70.4264 18.4491 71.3872 18.5931 72.1702 18.8859C72.9533 19.1787 73.573 19.5483 74.0294 19.9947C74.4858 20.4411 74.774 20.9163 74.8941 21.4155H80.5773C80.438 20.1963 79.9576 19.0491 79.1313 17.9835C78.305 16.9179 77.1232 16.0587 75.5907 15.4011C74.0582 14.7483 72.1366 14.4219 69.8307 14.4219C68.6057 14.4219 67.4383 14.5227 66.319 14.7195C65.1996 14.9163 64.1524 15.2139 63.1819 15.6123C62.2115 16.0059 61.3276 16.5003 60.5349 17.0955C59.7423 17.6907 59.0601 18.3723 58.4932 19.1451C57.9264 19.9179 57.4844 20.7819 57.1769 21.7275C56.8647 22.6731 56.7109 23.7147 56.7109 24.8523C56.7109 26.5899 57.1625 28.1163 58.0657 29.4315C58.9688 30.7467 60.2515 31.7691 61.9137 32.4891C63.5759 33.2139 65.5455 33.5739 67.8178 33.5739C69.8499 33.5739 71.685 33.3051 73.3184 32.7627C74.9566 32.2203 76.3257 31.4235 77.4403 30.3771C78.55 29.3259 79.3378 28.0635 79.8038 26.5851H74.1207C73.8084 27.1851 73.3665 27.7083 72.79 28.1451C72.2135 28.5819 71.5313 28.9275 70.7483 29.1771C69.9652 29.4267 69.1101 29.5515 68.1781 29.5515C67.0059 29.5515 65.9779 29.3595 65.0891 28.9707C64.2004 28.5819 63.5086 28.0203 63.009 27.2811C62.5094 26.5419 62.2596 25.6443 62.2596 24.5979C62.2596 23.9979 62.3364 23.4267 62.4902 22.8939C62.6439 22.3611 62.8649 21.8667 63.1483 21.4107L63.1579 21.4059Z" fill="white"/>
<path d="M104.138 14.7891H99.3103L97.552 24.8307C97.3983 25.7763 97.0668 26.6067 96.5576 27.3219C96.0484 28.0371 95.395 28.5891 94.5927 28.9875C93.7905 29.3811 92.8681 29.5827 91.816 29.5827C90.7159 29.5827 89.8031 29.4147 89.0777 29.0787C88.3571 28.7427 87.8383 28.2435 87.526 27.5811C87.2138 26.9187 87.1369 26.1219 87.2954 25.1955L89.1546 14.7939H83.8077L82.0495 24.7827C81.7228 26.6595 81.9005 28.2531 82.5779 29.5683C83.2601 30.8835 84.3506 31.8819 85.859 32.5635C87.3675 33.2451 89.1786 33.5811 91.2972 33.5811C93.4158 33.5811 95.2125 33.2691 96.7353 32.6499C98.2582 32.0307 99.488 31.0947 100.43 29.8371C101.366 28.5795 102.001 27.0051 102.327 25.1139L104.134 14.7891H104.138Z" fill="white"/>
<path d="M113.459 14.7891L101.242 33.2163H107.055L109.39 29.5251H118.955L120.021 33.2163H125.469L119.733 14.7891H113.454H113.459ZM111.854 25.6275L115.957 19.1475L117.83 25.6275H111.854Z" fill="white"/>
<path d="M146.52 14.7891H125.853L125.156 18.7875H132.804L130.22 33.2163H135.567L138.122 18.7875H145.794L146.52 14.7891Z" fill="white"/>
<path d="M165.219 15.3699C164.369 14.9811 163.374 14.7891 162.236 14.7891H148.65L145.422 33.2163H150.745L151.883 26.7651H158.522C159.416 26.7651 160.05 26.9235 160.42 27.2403C160.79 27.5571 161.02 28.1379 161.102 28.9827L161.621 33.2163H167.021L166.324 28.2627C166.204 27.4371 166.007 26.7699 165.728 26.2611C165.455 25.7523 165.013 25.3539 164.412 25.0611C164.105 24.9123 163.725 24.7875 163.278 24.6867C164.013 24.5475 164.662 24.3123 165.224 23.9763C166.094 23.4579 166.756 22.8099 167.213 22.0275C167.669 21.2451 167.895 20.4243 167.895 19.5603C167.895 18.5811 167.664 17.7315 167.198 17.0163C166.732 16.3011 166.074 15.7539 165.224 15.3651L165.219 15.3699ZM161.049 22.5075C160.67 22.6611 160.276 22.7379 159.863 22.7379H152.604L153.276 18.8163H160.588C161.121 18.8163 161.554 18.9459 161.88 19.2051C162.207 19.4643 162.37 19.8867 162.37 20.4675C162.37 21.0003 162.246 21.4371 161.996 21.7731C161.746 22.1091 161.429 22.3539 161.054 22.5075H161.049Z" fill="white"/>
<path d="M188.514 15.4962C186.851 14.781 184.877 14.4258 182.586 14.4258C181.38 14.4258 180.212 14.5266 179.083 14.7234C177.954 14.9202 176.902 15.2226 175.932 15.6258C174.962 16.029 174.078 16.5282 173.285 17.1234C172.492 17.7186 171.81 18.405 171.243 19.1874C170.676 19.9698 170.234 20.8338 169.927 21.7794C169.615 22.725 169.461 23.7666 169.461 24.9042C169.461 26.6418 169.908 28.1586 170.806 29.4594C171.7 30.7602 172.977 31.7682 174.64 32.493C176.302 33.2178 178.276 33.5778 180.568 33.5778C181.793 33.5778 182.96 33.477 184.08 33.2802C185.199 33.0834 186.246 32.781 187.217 32.3778C188.187 31.9746 189.071 31.4754 189.864 30.8802C190.656 30.285 191.338 29.5986 191.905 28.8162C192.472 28.0338 192.914 27.1698 193.222 26.2242C193.534 25.2786 193.688 24.237 193.688 23.0994C193.688 21.3618 193.241 19.8402 192.342 18.5298C191.449 17.2242 190.171 16.2114 188.509 15.4962H188.514ZM187.932 25.0962C187.779 25.6386 187.558 26.133 187.274 26.5794C186.991 27.0258 186.635 27.4338 186.217 27.8034C185.795 28.173 185.324 28.485 184.795 28.7442C184.272 29.0034 183.695 29.2002 183.066 29.3394C182.437 29.4786 181.759 29.5458 181.039 29.5458C179.814 29.5458 178.747 29.349 177.834 28.9506C176.922 28.557 176.22 27.9858 175.73 27.2466C175.24 26.5074 174.995 25.6194 174.995 24.5874C174.995 23.9682 175.072 23.3922 175.226 22.8594C175.379 22.3266 175.61 21.8322 175.913 21.3762C176.215 20.9202 176.576 20.5122 176.998 20.1522C177.421 19.7922 177.892 19.485 178.42 19.2354C178.944 18.9858 179.516 18.7938 180.135 18.6546C180.755 18.5154 181.418 18.4482 182.124 18.4482C183.364 18.4482 184.435 18.645 185.338 19.0434C186.241 19.437 186.938 20.0034 187.433 20.733C187.923 21.4626 188.168 22.3554 188.168 23.4018C188.168 23.9874 188.091 24.549 187.937 25.0914L187.932 25.0962Z" fill="white"/>
<path d="M215.277 15.9123C214.388 15.1635 213.153 14.7891 211.568 14.7891H197.439L194.211 33.2163H208.522C210.002 33.2163 211.289 32.9907 212.385 32.5347C213.48 32.0787 214.33 31.4355 214.94 30.6099C215.55 29.7843 215.858 28.8195 215.858 27.7203C215.858 26.8755 215.642 26.1507 215.214 25.5411C214.782 24.9315 214.181 24.4467 213.408 24.0963C213.009 23.9139 212.577 23.7795 212.101 23.6883C212.778 23.5923 213.393 23.4099 213.951 23.1411C214.796 22.7379 215.449 22.1763 215.915 21.4611C216.381 20.7459 216.612 19.9443 216.612 19.0467C216.612 17.7027 216.17 16.6611 215.281 15.9123H215.277ZM202.09 18.7875H209.608C210.088 18.7875 210.482 18.9171 210.785 19.1763C211.087 19.4355 211.236 19.7811 211.236 20.2083C211.236 20.5683 211.145 20.8899 210.967 21.1635C210.785 21.4371 210.53 21.6483 210.203 21.7971C209.877 21.9459 209.478 22.0179 209.017 22.0179H201.527L202.094 18.7923L202.09 18.7875ZM210.098 28.2339C209.891 28.5459 209.608 28.7859 209.247 28.9539C208.887 29.1267 208.474 29.2131 208.008 29.2131H200.259L200.879 25.6275H208.887C209.214 25.6275 209.488 25.6899 209.713 25.8195C209.939 25.9491 210.107 26.1315 210.232 26.3619C210.352 26.5923 210.41 26.8659 210.41 27.1731C210.41 27.5667 210.309 27.9219 210.098 28.2291V28.2339Z" fill="#FC6200"/>
<path d="M217.25 33.2163H235.717L236.442 29.1891H223.346L223.913 25.8867H236.029L236.673 22.0419H224.586L225.153 18.8163H238.248L238.998 14.7891H220.531L217.25 33.2163Z" fill="#FC6200"/>
<path d="M240.67 14.7891L239.969 18.7875H247.617L245.032 33.2163H250.379L252.94 18.7875H260.612L261.332 14.7891H240.67Z" fill="#FC6200"/>
</svg>
