<svg width="53" height="52" viewBox="0 0 53 52" fill="none" xmlns="http://www.w3.org/2000/svg">
<path d="M48.5556 26C48.5556 12.766 38.7612 1.8148 26.0212 0V3.484C12.7764 3.484 1.81628 13.2704 0 26H3.48685C3.48685 39.234 13.2812 50.1852 26.0212 52V48.516C39.2661 48.516 50.2262 38.7296 52.0425 26H48.5556Z" fill="#FC6200"/>
<path d="M34.1503 30.6904C32.5266 33.4932 29.4925 35.3808 26.016 35.3808C20.8326 35.3808 16.6276 31.1792 16.6276 26C16.6276 20.8208 20.8326 16.6192 26.016 16.6192C29.4925 16.6192 32.5266 18.5016 34.1503 21.3096L39.2296 18.3768C36.7108 13.4056 31.8084 9.854 26.0213 9.2144V10.9876C17.325 10.9876 10.1587 17.55 9.22714 26H11.0018C11.0018 34.6892 17.5748 41.8496 26.0265 42.7804V41.0072C31.7043 41.0072 36.7212 38.2148 39.7865 33.93L34.1607 30.6852L34.1503 30.6904Z" fill="white"/>
</svg>
