<svg width="222" height="21" viewBox="0 0 222 21" fill="none" xmlns="http://www.w3.org/2000/svg">
<path d="M6.9841 7.566C7.29115 7.072 7.67106 6.63 8.11862 6.24C8.56619 5.85 9.07621 5.512 9.64347 5.2312C10.2107 4.9504 10.83 4.7372 11.5014 4.5864C12.1727 4.4356 12.8805 4.3628 13.6299 4.3628C14.8581 4.3628 15.899 4.5188 16.7473 4.836C17.5956 5.1532 18.2669 5.5536 18.7613 6.0372C19.2557 6.5208 19.568 7.0356 19.6981 7.5764H25.8547C25.7038 6.2556 25.1834 5.0128 24.2882 3.8584C23.3931 2.704 22.1129 1.7732 20.4527 1.0608C18.7925 0.3536 16.7108 0 14.2128 0C12.8857 0 11.6211 0.1092 10.4085 0.3224C9.19591 0.5356 8.06138 0.858 7.01012 1.2896C5.95887 1.716 5.00128 2.2516 4.14258 2.8964C3.28388 3.5412 2.54488 4.2796 1.93078 5.1168C1.31667 5.954 0.837881 6.89 0.504809 7.9144C0.166533 8.9388 0 10.0672 0 11.2996C0 13.182 0.489199 14.8356 1.4676 16.2604C2.446 17.6852 3.83553 18.7928 5.6362 19.5728C7.43687 20.358 9.57061 20.748 12.0322 20.748C14.2336 20.748 16.2216 20.4568 17.9911 19.8692C19.7657 19.2816 21.2489 18.4184 22.4563 17.2848C23.6585 16.146 24.512 14.7784 25.0168 13.1768H18.8602C18.5219 13.8268 18.0431 14.3936 17.4186 14.8668C16.7941 15.34 16.0551 15.7144 15.2068 15.9848C14.3585 16.2552 13.4322 16.3904 12.4225 16.3904C11.1527 16.3904 10.039 16.1824 9.07621 15.7612C8.11342 15.34 7.36401 14.7316 6.82277 13.9308C6.28153 13.13 6.01091 12.1576 6.01091 11.024C6.01091 10.374 6.09417 9.7552 6.26071 9.178C6.42725 8.6008 6.66664 8.0652 6.97369 7.5712L6.9841 7.566Z" fill="white"/>
<path d="M51.3764 0.395199H46.1461L44.2413 11.2736C44.0748 12.298 43.7157 13.1976 43.164 13.9724C42.6124 14.7472 41.9046 15.3452 41.0355 15.7768C40.1664 16.2032 39.1672 16.4216 38.0274 16.4216C36.8357 16.4216 35.8469 16.2396 35.061 15.8756C34.2804 15.5116 33.7183 14.9708 33.3801 14.2532C33.0418 13.5356 32.9585 12.6724 33.1303 11.6688L35.1443 0.400399H29.352L27.4472 11.2216C27.0933 13.2548 27.2859 14.9812 28.0197 16.406C28.7587 17.8308 29.9401 18.9124 31.5742 19.6508C33.2083 20.3892 35.1703 20.7532 37.4654 20.7532C39.7605 20.7532 41.7069 20.4152 43.3566 19.7444C45.0063 19.0736 46.3386 18.0596 47.3587 16.6972C48.3735 15.3348 49.0605 13.6292 49.4143 11.5804L51.3711 0.395199H51.3764Z" fill="white"/>
<path d="M61.4829 0.395199L48.2485 20.358H54.5457L57.0749 16.3592H67.4366L68.5919 20.358H74.4936L68.2797 0.395199H61.4777H61.4829ZM59.7447 12.1368L64.1892 5.1168L66.2188 12.1368H59.7447Z" fill="white"/>
<path d="M97.2986 0.395199H74.9099L74.1553 4.7268H82.4405L79.6406 20.358H85.4329L88.2016 4.7268H96.5128L97.2986 0.395199Z" fill="white"/>
<path d="M117.543 1.0244C116.622 0.603199 115.545 0.395199 114.311 0.395199H99.5937L96.0964 20.358H101.863L103.096 13.3692H110.288C111.256 13.3692 111.943 13.5408 112.344 13.884C112.745 14.2272 112.995 14.8564 113.083 15.7716L113.645 20.358H119.495L118.74 14.9916C118.61 14.0972 118.397 13.3744 118.095 12.8232C117.798 12.272 117.319 11.8404 116.669 11.5232C116.336 11.362 115.925 11.2268 115.441 11.1176C116.237 10.9668 116.939 10.712 117.548 10.348C118.49 9.7864 119.208 9.0844 119.703 8.2368C120.197 7.3892 120.442 6.5 120.442 5.564C120.442 4.5032 120.192 3.5828 119.687 2.808C119.182 2.0332 118.469 1.4404 117.548 1.0192L117.543 1.0244ZM113.026 8.7568C112.615 8.9232 112.188 9.0064 111.74 9.0064H103.877L104.605 4.758H112.526C113.104 4.758 113.572 4.8984 113.926 5.1792C114.28 5.46 114.457 5.9176 114.457 6.5468C114.457 7.124 114.322 7.5972 114.051 7.9612C113.78 8.3252 113.437 8.5904 113.031 8.7568H113.026Z" fill="white"/>
<path d="M142.779 1.1648C140.978 0.39 138.839 0.00519943 136.356 0.00519943C135.05 0.00519943 133.786 0.1144 132.563 0.3276C131.34 0.5408 130.2 0.8684 129.149 1.3052C128.097 1.742 127.14 2.2828 126.281 2.9276C125.422 3.5724 124.683 4.316 124.069 5.1636C123.455 6.0112 122.976 6.9472 122.643 7.9716C122.305 8.996 122.138 10.1244 122.138 11.3568C122.138 13.2392 122.622 14.8824 123.596 16.2916C124.564 17.7008 125.948 18.7928 127.749 19.578C129.549 20.3632 131.688 20.7532 134.171 20.7532C135.498 20.7532 136.762 20.644 137.975 20.4308C139.188 20.2176 140.322 19.89 141.373 19.4532C142.425 19.0164 143.382 18.4756 144.241 17.8308C145.1 17.186 145.839 16.4424 146.453 15.5948C147.067 14.7472 147.546 13.8112 147.879 12.7868C148.217 11.7624 148.384 10.634 148.384 9.4016C148.384 7.5192 147.9 5.8708 146.926 4.4512C145.958 3.0368 144.574 1.9396 142.773 1.1648H142.779ZM142.149 11.5648C141.982 12.1524 141.743 12.688 141.436 13.1716C141.129 13.6552 140.744 14.0972 140.291 14.4976C139.833 14.898 139.323 15.236 138.75 15.5168C138.183 15.7976 137.559 16.0108 136.877 16.1616C136.195 16.3124 135.461 16.3852 134.681 16.3852C133.354 16.3852 132.198 16.172 131.21 15.7404C130.221 15.314 129.461 14.6952 128.93 13.8944C128.399 13.0936 128.134 12.1316 128.134 11.0136C128.134 10.3428 128.217 9.7188 128.384 9.1416C128.55 8.5644 128.8 8.0288 129.128 7.5348C129.456 7.0408 129.846 6.5988 130.304 6.2088C130.762 5.8188 131.272 5.486 131.844 5.2156C132.412 4.9452 133.031 4.7372 133.702 4.5864C134.374 4.4356 135.092 4.3628 135.857 4.3628C137.2 4.3628 138.36 4.576 139.339 5.0076C140.317 5.434 141.072 6.0476 141.608 6.838C142.138 7.6284 142.404 8.5956 142.404 9.7292C142.404 10.3636 142.321 10.972 142.154 11.5596L142.149 11.5648Z" fill="white"/>
<path d="M171.771 1.612C170.809 0.8008 169.471 0.395199 167.754 0.395199H152.448L148.951 20.358H164.454C166.057 20.358 167.452 20.1136 168.638 19.6196C169.825 19.1256 170.746 18.4288 171.407 17.5344C172.068 16.64 172.401 15.5948 172.401 14.404C172.401 13.4888 172.167 12.7036 171.704 12.0432C171.235 11.3828 170.585 10.8576 169.747 10.478C169.315 10.2804 168.847 10.1348 168.331 10.036C169.065 9.932 169.731 9.7344 170.335 9.4432C171.251 9.0064 171.959 8.398 172.464 7.6232C172.968 6.8484 173.218 5.98 173.218 5.0076C173.218 3.5516 172.739 2.4232 171.777 1.612H171.771ZM157.486 4.7268H165.63C166.151 4.7268 166.578 4.8672 166.905 5.148C167.233 5.4288 167.395 5.8032 167.395 6.266C167.395 6.656 167.296 7.0044 167.103 7.3008C166.905 7.5972 166.63 7.826 166.276 7.9872C165.922 8.1484 165.49 8.2264 164.99 8.2264H156.877L157.491 4.732L157.486 4.7268ZM166.161 14.9604C165.937 15.2984 165.63 15.5584 165.24 15.7404C164.85 15.9276 164.402 16.0212 163.897 16.0212H155.503L156.174 12.1368H164.85C165.204 12.1368 165.5 12.2044 165.745 12.3448C165.989 12.4852 166.172 12.6828 166.307 12.9324C166.437 13.182 166.499 13.4784 166.499 13.8112C166.499 14.2376 166.39 14.6224 166.161 14.9552V14.9604Z" fill="#FC6200"/>
<path d="M173.91 20.358H193.915L194.701 15.9952H180.514L181.129 12.4176H194.254L194.951 8.2524H181.857L182.471 4.758H196.658L197.47 0.395199H177.465L173.91 20.358Z" fill="#FC6200"/>
<path d="M199.291 0.395199L198.532 4.7268H206.817L204.017 20.358H209.809L212.583 4.7268H220.894L221.675 0.395199H199.291Z" fill="#FC6200"/>
</svg>
