<svg width="407" height="407" viewBox="0 0 407 407" fill="none" xmlns="http://www.w3.org/2000/svg">
<path d="M203.576 93.5945V112.722C150.181 112.722 105.996 152.213 98.6631 203.576H76.5762C85.4441 141.402 138.939 93.5945 203.576 93.5945Z" fill="#E35800"/>
<path d="M313.569 203.576H294.441C294.441 150.181 254.939 105.996 203.576 98.6634V76.5764C265.761 85.4554 313.569 138.939 313.569 203.576Z" fill="#E35800"/>
<path d="M330.576 203.577C321.708 265.762 268.213 313.57 203.576 313.57V294.442C256.971 294.442 301.156 254.94 308.489 203.577H330.576Z" fill="#E35800"/>
<path d="M203.576 308.49V330.576C141.401 321.709 93.583 268.214 93.583 203.577H112.721C112.721 256.972 152.213 301.168 203.576 308.49Z" fill="#E35800"/>
<path d="M203.576 286.403V308.49C152.213 301.168 112.722 256.972 112.722 203.577H131.849C131.849 245.729 163.025 280.616 203.576 286.403Z" fill="#EF5D00"/>
<path d="M155.709 203.577C155.709 231.263 176.653 254.067 203.576 257.038V286.403C162.993 280.616 131.793 245.729 131.793 203.577H155.709ZM203.574 233.472C187.063 233.472 173.657 220.064 173.657 203.577H203.574V233.472Z" fill="#FC6200"/>
<path d="M245.618 179.303L229.451 188.635C224.293 179.701 214.63 173.693 203.576 173.693V150.115C221.996 152.147 237.612 163.478 245.618 179.303Z" fill="white"/>
<path d="M203.576 233.471V257.049C176.674 254.078 155.714 231.263 155.714 203.577L150.104 203.588L173.681 203.577C173.681 220.075 187.077 233.482 203.576 233.482V233.471Z" fill="white"/>
<path d="M203.576 112.722V131.849C161.423 131.849 126.537 163.025 120.75 203.576H98.6631C105.996 152.213 150.181 112.722 203.576 112.722Z" fill="#EF5D00"/>
<path d="M203.576 155.758V173.693C187.077 173.693 173.692 187.055 173.681 203.576H150.104C153.085 176.663 175.879 155.758 203.576 155.758Z" fill="white"/>
<path d="M203.576 155.722C175.879 155.722 153.085 176.643 150.104 203.577H120.75C126.537 162.994 161.423 131.794 203.576 131.794V155.722ZM203.576 203.577H173.681C173.692 187.043 187.077 173.671 203.576 173.671V203.577Z" fill="#FC6200"/>
<path d="M308.489 203.577C301.156 254.94 256.971 294.442 203.576 294.442V275.315C245.729 275.315 280.615 244.128 286.402 203.577H308.489Z" fill="#EF5D00"/>
<path d="M286.402 203.577C280.615 244.128 245.729 275.315 203.576 275.315V251.406C221.632 251.406 237.612 242.505 247.363 228.855L229.451 218.529C224.293 227.453 214.63 233.471 203.576 233.471V203.577H286.402Z" fill="#FC6200"/>
<path d="M247.363 228.855C237.612 242.505 221.632 251.406 203.576 251.406V233.471C214.63 233.471 224.293 227.452 229.451 218.529L247.363 228.855Z" fill="white"/>
<path d="M294.441 203.576H275.303C275.303 161.424 244.127 126.537 203.576 120.75V98.6635C254.939 105.996 294.441 150.181 294.441 203.576Z" fill="#EF5D00"/>
<path d="M275.303 203.576H203.576V173.693C214.63 173.693 224.293 179.7 229.451 188.634L245.618 179.303C237.612 163.477 221.996 152.147 203.576 150.115V120.75C244.127 126.537 275.303 161.423 275.303 203.576Z" fill="#FC6200"/>
<path opacity="0.5" d="M378.452 203.077C378.452 100.014 302.222 14.7234 203.076 0.576416V27.7012C100.014 27.7012 14.7231 103.931 0.576172 203.077H27.7009C27.7009 306.139 103.931 391.429 203.076 405.576V378.452C306.139 378.452 391.429 302.222 405.576 203.077H378.452Z" stroke="#FC6200"/>
</svg>
